<svg width="72" height="72" viewBox="0 0 72 72" fill="none" xmlns="http://www.w3.org/2000/svg">
<path fill-rule="evenodd" clip-rule="evenodd" d="M5.3999 0L11.1367 65.0006L35.9994 72L60.8612 65.0006L66.5999 0L5.3999 0ZM54.277 21.0667L35.9772 29.2486L35.9329 29.2678H35.9772H53.6311L51.6067 53.6099L36.0052 58.3732L35.9772 58.3642V58.3732L20.2909 53.5221L19.2787 41.2634H19.3057H27.037H27.065L27.5711 47.6136L35.9059 49.8143L35.9772 49.7931V49.8032L44.607 47.2617L45.198 37.0313L35.9772 37.0021L18.7726 36.9416L18.1826 29.2688L35.9772 21.5183L37.0145 21.0677H35.9772H17.5078L16.5795 13.2165H35.9772H55.0366L54.277 21.0667Z" fill="white"/>
</svg>
