<svg width="28" height="28" viewBox="0 0 28 28" fill="none" xmlns="http://www.w3.org/2000/svg">
<path d="M11.5004 15.9322C11.5004 15.9322 -0.418709 20.2592 1.82874 22.3486C4.07619 24.438 12.9519 17.1177 12.9519 17.1177C12.9519 17.1177 7.13132 24.6188 9.99039 25.8961C12.8494 27.1735 13.6425 17.7608 13.6425 17.7608C13.6425 17.7608 10.8829 28.9695 14.5204 27.9322C18.1579 26.8949 14.9886 17.1177 14.9886 17.1177C14.9886 17.1177 19.2758 26.3051 21.8012 25.173C24.3267 24.0409 16.4547 16.1041 16.4547 16.1041C16.4547 16.1041 24.2652 23.0717 26.4044 20.2888C28.5436 17.5059 16.4547 14.5808 16.4547 14.5808C16.4547 14.5808 27.1974 17.5445 27.9641 14.5808C28.7309 11.6171 16.9464 13.9673 16.9464 13.9673C16.9464 13.9673 28.8186 10.2241 26.8375 7.71981C24.8563 5.21549 16.086 13.1256 16.086 13.1256C16.086 13.1256 26.0357 5.66894 24.2301 3.66548C22.4245 1.66202 15.3837 12.5832 15.3837 12.5832C15.3837 12.5832 22.2489 1.15819 19.2348 0.521C16.2206 -0.116194 14.0317 12.7759 14.0317 12.7759C14.0317 12.7759 15.8314 -1.39355 12.0242 0.11201C8.21701 1.61757 13.1187 13.1256 13.1187 13.1256C13.1187 13.1256 7.27179 1.70648 4.84876 3.25945C2.42572 4.81243 12.4719 14.2399 12.4719 14.2399C12.4719 14.2399 3.71625 5.9416 1.37808 7.67239C-0.960088 9.40319 11.913 14.5245 11.913 14.5245C11.913 14.5245 0.500171 11.6734 0.0143935 14.8208C-0.471384 17.9683 11.5004 15.9322 11.5004 15.9322Z" fill="#4D89F9"/>
<path d="M13.6891 14.0118C13.6891 14.0118 12.3196 10.6332 13.9817 10.2242C15.6439 9.81521 14.4061 14.2874 14.3739 14.1096C14.3417 13.9318 15.1552 10.7547 17.2183 11.3089C19.2814 11.8631 14.7982 14.3852 14.7982 14.3852C14.7982 14.3852 16.8145 12.9241 18.3098 13.9673C19.8052 15.0106 14.9738 14.8772 14.9738 14.8772C14.9738 14.8772 17.7655 14.6609 17.9616 16.4065C18.1577 18.1521 14.8626 15.1262 14.8626 15.1262C14.8626 15.1262 17.3061 17.998 15.7405 18.7596C14.1749 19.5213 14.3124 15.3099 14.3124 15.3099C14.3124 15.3099 14.5494 18.4455 12.9546 18.2291C11.3597 18.0128 13.8852 15.3099 13.8852 15.3099C13.8852 15.3099 11.3041 17.4971 11.0407 16.0004C10.7774 14.5038 13.3818 14.9424 13.3818 14.9424C13.3818 14.9424 9.61559 14.0296 10.6486 12.4914C11.6816 10.9533 13.6891 14.0118 13.6891 14.0118Z" fill="#D94521"/>
</svg>
