<svg width="72" height="72" viewBox="0 0 72 72" fill="none" xmlns="http://www.w3.org/2000/svg">
<path d="M34.435 0H23.4785C17.4274 0 12.522 4.90539 12.522 10.9565C12.522 17.0077 17.4274 21.913 23.4785 21.913H34.435V0Z" fill="white"/>
<path d="M37.5654 0H48.522C54.5731 0 59.4785 4.90539 59.4785 10.9565C59.4785 17.0077 54.5731 21.913 48.522 21.913H37.5654V0Z" fill="white"/>
<path d="M34.435 25.0435H23.4785C17.4274 25.0435 12.522 29.9488 12.522 36C12.522 42.0511 17.4274 46.9565 23.4785 46.9565H34.435V25.0435Z" fill="white"/>
<path d="M34.435 50.0869H23.4785C17.4274 50.0869 12.522 54.9923 12.522 61.0434C12.522 67.0946 17.4274 72 23.4785 72C29.5296 72 34.435 67.0946 34.435 61.0434V50.0869Z" fill="white"/>
<path d="M48.522 46.9565C54.5731 46.9565 59.4785 42.0511 59.4785 36C59.4785 29.9488 54.5731 25.0435 48.522 25.0435C42.4708 25.0435 37.5654 29.9488 37.5654 36C37.5654 42.0511 42.4708 46.9565 48.522 46.9565Z" fill="white"/>
</svg>
