<svg width="72" height="72" viewBox="0 0 72 72" fill="none" xmlns="http://www.w3.org/2000/svg">
<g clip-path="url(#clip0_144_64)">
<path fill-rule="evenodd" clip-rule="evenodd" d="M5.41943 -3.47461L10.9891 61.327L35.9818 68.5254L61.0445 61.3183L66.6194 -3.47353L5.41943 -3.47461ZM55.0016 11.9039L54.6527 15.9327L54.4991 17.7185H54.4751H36.0194H35.9933H25.1808L25.8807 25.8574H35.9923H36.0194H51.7373H53.8024L53.6154 27.9921L51.8146 48.9176L51.6997 50.2591L36.0194 54.7669L35.9839 54.7788L20.2901 50.2591L19.2173 37.7792H22.7616H26.9075L27.4528 44.1194L35.985 46.5087L35.9923 46.5066L44.538 44.1129L45.4269 33.8057H36.0194H35.9933H18.8737L16.9913 11.9039L16.8085 9.77027H35.9933H36.0194H55.1854L55.0016 11.9039Z" fill="white"/>
</g>
<defs>
<clipPath id="clip0_144_64">
<rect width="72" height="72" fill="white"/>
</clipPath>
</defs>
</svg>
