<svg width="63" height="72" viewBox="0 0 63 72" fill="none" xmlns="http://www.w3.org/2000/svg">
<path d="M0.00278692 0L5.73589 64.8017L31.4638 72L57.2613 64.7933L63 0.00280902H0L0.00278692 0ZM23.7713 16.7811L22.6314 29.2539L49.5856 29.2567L49.3933 31.3912L47.5399 52.3149L47.4228 53.6574L31.2464 58.1763L15.0922 53.6574L13.9885 41.179H21.904L22.467 47.5179L31.2575 49.9051L40.0537 47.5122L40.9678 37.2049L14.0136 37.2021L14.2059 35.0676L16.0594 14.1439L16.6419 8.28522H48.1001L48.4652 12.7733L49.5884 25.2798H41.6702L40.94 17.0732L32.888 16.5845H31.4526V16.5733L23.7741 16.7811H23.7713Z" fill="white"/>
</svg>
