<svg width="176" height="53" viewBox="0 0 176 53" fill="none" xmlns="http://www.w3.org/2000/svg">
<path d="M102.6 26.4C102.6 27.0533 102.74 27.56 103.02 27.92C103.3 28.28 103.727 28.46 104.3 28.46C104.713 28.46 105.073 28.38 105.38 28.22C105.687 28.0467 105.927 27.8067 106.1 27.5C106.273 27.18 106.36 26.8133 106.36 26.4V20.8H108.52V30H106.36V28.58C106.067 29.1133 105.687 29.52 105.22 29.8C104.767 30.0667 104.22 30.2 103.58 30.2C102.553 30.2 101.76 29.88 101.2 29.24C100.653 28.6 100.38 27.7333 100.38 26.64V20.8H102.6V26.4ZM111.198 17.14C111.198 16.7667 111.332 16.4533 111.598 16.2C111.878 15.9467 112.198 15.82 112.558 15.82C112.945 15.82 113.265 15.9467 113.518 16.2C113.785 16.4533 113.918 16.7667 113.918 17.14C113.918 17.5 113.785 17.8133 113.518 18.08C113.265 18.3333 112.945 18.46 112.558 18.46C112.198 18.46 111.878 18.3333 111.598 18.08C111.332 17.8133 111.198 17.5 111.198 17.14ZM111.498 20.8H113.618V30H111.498V20.8ZM123.831 16H125.951L117.691 33H115.511L123.831 16ZM128.44 26.4C128.44 27.0533 128.58 27.56 128.86 27.92C129.14 28.28 129.567 28.46 130.14 28.46C130.553 28.46 130.913 28.38 131.22 28.22C131.527 28.0467 131.767 27.8067 131.94 27.5C132.113 27.18 132.2 26.8133 132.2 26.4V20.8H134.36V30H132.2V28.58C131.907 29.1133 131.527 29.52 131.06 29.8C130.607 30.0667 130.06 30.2 129.42 30.2C128.393 30.2 127.6 29.88 127.04 29.24C126.493 28.6 126.22 27.7333 126.22 26.64V20.8H128.44V26.4ZM142.418 20.8H144.838L141.538 25.26L145.038 30H142.618L140.398 26.84L138.218 30H135.738L139.258 25.26L135.938 20.8H138.418L140.398 23.68L142.418 20.8Z" fill="#232041"/>
<path d="M106.3 32.4H108.48V48H106.3V32.4ZM98.68 43.4C98.68 42.3867 98.8867 41.5267 99.3 40.82C99.7133 40.1 100.26 39.5533 100.94 39.18C101.633 38.7933 102.373 38.6 103.16 38.6C103.933 38.6 104.607 38.7933 105.18 39.18C105.767 39.5667 106.227 40.12 106.56 40.84C106.907 41.5467 107.08 42.4 107.08 43.4C107.08 44.3867 106.907 45.24 106.56 45.96C106.227 46.68 105.767 47.2333 105.18 47.62C104.607 48.0067 103.933 48.2 103.16 48.2C102.373 48.2 101.633 48.0133 100.94 47.64C100.26 47.2533 99.7133 46.7 99.3 45.98C98.8867 45.26 98.68 44.4 98.68 43.4ZM100.92 43.4C100.92 44.0133 101.047 44.54 101.3 44.98C101.553 45.42 101.887 45.7533 102.3 45.98C102.727 46.2067 103.187 46.32 103.68 46.32C104.093 46.32 104.5 46.2067 104.9 45.98C105.313 45.7533 105.647 45.4267 105.9 45C106.167 44.56 106.3 44.0267 106.3 43.4C106.3 42.7733 106.167 42.2467 105.9 41.82C105.647 41.38 105.313 41.0467 104.9 40.82C104.5 40.5933 104.093 40.48 103.68 40.48C103.187 40.48 102.727 40.5933 102.3 40.82C101.887 41.0467 101.553 41.38 101.3 41.82C101.047 42.26 100.92 42.7867 100.92 43.4ZM115.157 48.2C114.224 48.2 113.397 48 112.677 47.6C111.971 47.2 111.424 46.64 111.037 45.92C110.651 45.2 110.457 44.36 110.457 43.4C110.457 42.4267 110.651 41.58 111.037 40.86C111.437 40.14 111.997 39.5867 112.717 39.2C113.437 38.8 114.284 38.6 115.257 38.6C116.231 38.6 117.057 38.7867 117.737 39.16C118.417 39.5333 118.937 40.0733 119.297 40.78C119.671 41.4733 119.857 42.3133 119.857 43.3C119.857 43.4067 119.851 43.52 119.837 43.64C119.837 43.76 119.831 43.8467 119.817 43.9H111.737V42.42H117.977L117.317 43.34C117.357 43.26 117.397 43.1533 117.437 43.02C117.491 42.8733 117.517 42.7533 117.517 42.66C117.517 42.1667 117.417 41.74 117.217 41.38C117.031 41.02 116.764 40.74 116.417 40.54C116.084 40.34 115.691 40.24 115.237 40.24C114.691 40.24 114.224 40.36 113.837 40.6C113.451 40.84 113.157 41.1867 112.957 41.64C112.757 42.0933 112.651 42.6533 112.637 43.32C112.637 43.9867 112.737 44.5533 112.937 45.02C113.137 45.4733 113.431 45.82 113.817 46.06C114.217 46.3 114.697 46.42 115.257 46.42C115.844 46.42 116.357 46.3 116.797 46.06C117.237 45.82 117.604 45.4533 117.897 44.96L119.757 45.72C119.277 46.5467 118.657 47.1667 117.897 47.58C117.137 47.9933 116.224 48.2 115.157 48.2ZM122.339 44.98C122.632 45.3 122.926 45.58 123.219 45.82C123.526 46.0467 123.832 46.22 124.139 46.34C124.446 46.4467 124.752 46.5 125.059 46.5C125.446 46.5 125.746 46.4133 125.959 46.24C126.186 46.0667 126.299 45.8267 126.299 45.52C126.299 45.2533 126.212 45.0267 126.039 44.84C125.866 44.64 125.626 44.4733 125.319 44.34C125.012 44.1933 124.652 44.0467 124.239 43.9C123.826 43.74 123.412 43.5533 122.999 43.34C122.599 43.1133 122.266 42.82 121.999 42.46C121.746 42.1 121.619 41.6467 121.619 41.1C121.619 40.54 121.759 40.0733 122.039 39.7C122.332 39.3267 122.719 39.0533 123.199 38.88C123.692 38.6933 124.219 38.6 124.779 38.6C125.286 38.6 125.759 38.6733 126.199 38.82C126.652 38.9667 127.059 39.16 127.419 39.4C127.779 39.64 128.086 39.9133 128.339 40.22L127.139 41.5C126.832 41.14 126.466 40.8467 126.039 40.62C125.612 40.3933 125.172 40.28 124.719 40.28C124.412 40.28 124.159 40.3467 123.959 40.48C123.759 40.6133 123.659 40.8067 123.659 41.06C123.659 41.2733 123.746 41.4667 123.919 41.64C124.106 41.8 124.346 41.9467 124.639 42.08C124.946 42.2133 125.286 42.3533 125.659 42.5C126.166 42.7 126.632 42.92 127.059 43.16C127.486 43.4 127.826 43.6933 128.079 44.04C128.346 44.3867 128.479 44.84 128.479 45.4C128.479 46.2667 128.179 46.9667 127.579 47.5C126.992 48.02 126.192 48.28 125.179 48.28C124.552 48.28 123.972 48.1867 123.439 48C122.919 47.8 122.459 47.5467 122.059 47.24C121.672 46.92 121.346 46.5867 121.079 46.24L122.339 44.98ZM130.316 35.14C130.316 34.7667 130.449 34.4533 130.716 34.2C130.996 33.9467 131.316 33.82 131.676 33.82C132.062 33.82 132.382 33.9467 132.636 34.2C132.902 34.4533 133.036 34.7667 133.036 35.14C133.036 35.5 132.902 35.8133 132.636 36.08C132.382 36.3333 132.062 36.46 131.676 36.46C131.316 36.46 130.996 36.3333 130.716 36.08C130.449 35.8133 130.316 35.5 130.316 35.14ZM130.616 38.8H132.736V48H130.616V38.8ZM135.188 48.62H137.328C137.341 49.0333 137.455 49.4067 137.668 49.74C137.895 50.0733 138.201 50.3333 138.588 50.52C138.975 50.7067 139.421 50.8 139.928 50.8C140.381 50.8 140.815 50.6933 141.228 50.48C141.641 50.2667 141.975 49.94 142.228 49.5C142.495 49.06 142.628 48.4933 142.628 47.8V38.8H144.748V47.8C144.748 48.9067 144.521 49.82 144.068 50.54C143.628 51.26 143.048 51.7933 142.328 52.14C141.608 52.5 140.828 52.68 139.988 52.68C138.988 52.68 138.135 52.5067 137.428 52.16C136.721 51.8267 136.175 51.3533 135.788 50.74C135.415 50.1267 135.215 49.42 135.188 48.62ZM135.008 43.36C135.008 42.3333 135.215 41.4733 135.628 40.78C136.041 40.0733 136.588 39.5333 137.268 39.16C137.961 38.7867 138.701 38.6 139.488 38.6C140.261 38.6 140.935 38.7933 141.508 39.18C142.095 39.5533 142.555 40.0933 142.888 40.8C143.235 41.5067 143.408 42.36 143.408 43.36C143.408 44.3467 143.235 45.1933 142.888 45.9C142.555 46.6067 142.095 47.1533 141.508 47.54C140.935 47.9133 140.261 48.1 139.488 48.1C138.701 48.1 137.961 47.9133 137.268 47.54C136.588 47.1667 136.041 46.6267 135.628 45.92C135.215 45.2133 135.008 44.36 135.008 43.36ZM137.248 43.36C137.248 43.9733 137.375 44.4933 137.628 44.92C137.881 45.3467 138.215 45.6733 138.628 45.9C139.055 46.1133 139.515 46.22 140.008 46.22C140.421 46.22 140.828 46.1133 141.228 45.9C141.641 45.6867 141.975 45.3667 142.228 44.94C142.495 44.5 142.628 43.9733 142.628 43.36C142.628 42.88 142.548 42.4667 142.388 42.12C142.241 41.76 142.041 41.46 141.788 41.22C141.535 40.9667 141.248 40.78 140.928 40.66C140.621 40.54 140.315 40.48 140.008 40.48C139.515 40.48 139.055 40.5933 138.628 40.82C138.215 41.0333 137.881 41.3533 137.628 41.78C137.375 42.2067 137.248 42.7333 137.248 43.36ZM153.347 42.4C153.347 41.72 153.207 41.2067 152.927 40.86C152.647 40.5133 152.214 40.34 151.627 40.34C151.227 40.34 150.874 40.4267 150.567 40.6C150.26 40.76 150.02 41 149.847 41.32C149.674 41.6267 149.587 41.9867 149.587 42.4V48H147.427V38.8H149.587V40.22C149.88 39.6733 150.254 39.2667 150.707 39C151.174 38.7333 151.727 38.6 152.367 38.6C153.407 38.6 154.2 38.92 154.747 39.56C155.294 40.1867 155.567 41.0533 155.567 42.16V48H153.347V42.4ZM162.325 48.2C161.392 48.2 160.565 48 159.845 47.6C159.139 47.2 158.592 46.64 158.205 45.92C157.819 45.2 157.625 44.36 157.625 43.4C157.625 42.4267 157.819 41.58 158.205 40.86C158.605 40.14 159.165 39.5867 159.885 39.2C160.605 38.8 161.452 38.6 162.425 38.6C163.399 38.6 164.225 38.7867 164.905 39.16C165.585 39.5333 166.105 40.0733 166.465 40.78C166.839 41.4733 167.025 42.3133 167.025 43.3C167.025 43.4067 167.019 43.52 167.005 43.64C167.005 43.76 166.999 43.8467 166.985 43.9H158.905V42.42H165.145L164.485 43.34C164.525 43.26 164.565 43.1533 164.605 43.02C164.659 42.8733 164.685 42.7533 164.685 42.66C164.685 42.1667 164.585 41.74 164.385 41.38C164.199 41.02 163.932 40.74 163.585 40.54C163.252 40.34 162.859 40.24 162.405 40.24C161.859 40.24 161.392 40.36 161.005 40.6C160.619 40.84 160.325 41.1867 160.125 41.64C159.925 42.0933 159.819 42.6533 159.805 43.32C159.805 43.9867 159.905 44.5533 160.105 45.02C160.305 45.4733 160.599 45.82 160.985 46.06C161.385 46.3 161.865 46.42 162.425 46.42C163.012 46.42 163.525 46.3 163.965 46.06C164.405 45.82 164.772 45.4533 165.065 44.96L166.925 45.72C166.445 46.5467 165.825 47.1667 165.065 47.58C164.305 47.9933 163.392 48.2 162.325 48.2ZM171.227 38.8V48H169.087V38.8H171.227ZM173.967 41.1C173.767 40.94 173.58 40.82 173.407 40.74C173.234 40.66 173.014 40.62 172.747 40.62C172.387 40.62 172.094 40.7133 171.867 40.9C171.64 41.0867 171.474 41.3467 171.367 41.68C171.274 42 171.227 42.38 171.227 42.82L170.507 42.4C170.507 41.6667 170.64 41.02 170.907 40.46C171.187 39.8867 171.54 39.4333 171.967 39.1C172.407 38.7667 172.86 38.6 173.327 38.6C173.66 38.6 173.974 38.6533 174.267 38.76C174.56 38.8533 174.807 39.0267 175.007 39.28L173.967 41.1Z" fill="#232041"/>
<path d="M96.125 43.3125C96.125 43.7917 96.0625 44.3021 95.9375 44.8438C95.8333 45.3854 95.6042 45.8958 95.25 46.375C94.9167 46.8333 94.4375 47.2188 93.8125 47.5312C93.1875 47.8438 92.375 48 91.375 48H77.625C76.6458 48 75.8438 47.9062 75.2188 47.7188C74.6146 47.5312 74.1354 47.2604 73.7812 46.9062C73.4271 46.5521 73.1875 46.1042 73.0625 45.5625C72.9375 45.0208 72.875 44.3854 72.875 43.6562V8.5625C72.875 7.375 73.0104 6.42708 73.2812 5.71875C73.5521 4.98958 73.9375 4.4375 74.4375 4.0625C74.9375 3.66667 75.5312 3.41667 76.2188 3.3125C76.9271 3.1875 77.7083 3.125 78.5625 3.125H107.594C108.594 3.125 109.094 3.64583 109.094 4.6875V7.5625C109.094 7.97917 108.969 8.25 108.719 8.375C108.469 8.5 108.167 8.5625 107.812 8.5625C107.604 8.5625 107.281 8.53125 106.844 8.46875C106.406 8.40625 105.896 8.33333 105.312 8.25C104.729 8.14583 104.094 8.03125 103.406 7.90625C102.74 7.76042 102.062 7.625 101.375 7.5C99.7708 7.1875 98.0208 6.82292 96.125 6.40625V14.3438H107.75C108.188 14.3438 108.406 14.5625 108.406 15V18.125C108.406 18.5833 108.188 18.8125 107.75 18.8125H96.125V43.3125Z" fill="#4D89F9"/>
<path d="M44.25 28.2188L51.5938 41.75C51.9062 42.3333 52.2812 42.8229 52.7188 43.2188C53.1562 43.5938 53.7604 43.7812 54.5312 43.7812C55.2396 43.7812 55.8333 43.5833 56.3125 43.1875C56.7708 42.7917 57.1562 42.3229 57.4688 41.7812L65.2188 28.4688C65.0938 31.2812 64.9792 33.875 64.875 36.25C64.8333 37.2708 64.7917 38.2917 64.75 39.3125C64.7083 40.3333 64.6667 41.2812 64.625 42.1562C64.5833 43.0312 64.5521 43.8125 64.5312 44.5C64.4896 45.1667 64.4583 45.6562 64.4375 45.9688C64.4167 46.2812 64.4271 46.5625 64.4688 46.8125C64.4896 47.0625 64.5625 47.2812 64.6875 47.4688C64.8125 47.6354 64.9896 47.7708 65.2188 47.875C65.4479 47.9583 65.7604 48 66.1562 48H69.5938C69.9688 48 70.3229 47.8854 70.6562 47.6562C70.9688 47.4062 71.125 46.9271 71.125 46.2188V6.46875C71.125 6.07292 71.0729 5.67708 70.9688 5.28125C70.8438 4.88542 70.6458 4.53125 70.375 4.21875C70.0833 3.88542 69.7083 3.625 69.25 3.4375C68.7917 3.22917 68.2292 3.125 67.5625 3.125H57.5C56.6875 3.125 55.9896 3.27083 55.4062 3.5625C54.8229 3.83333 54.3229 4.29167 53.9062 4.9375L45.5 18.2812L39.875 7.5C39.5417 6.85417 39.2188 6.27083 38.9062 5.75C38.5938 5.20833 38.2292 4.75 37.8125 4.375C37.375 3.97917 36.8438 3.67708 36.2188 3.46875C35.5729 3.23958 34.75 3.125 33.75 3.125H25.4375C24.6458 3.125 23.9688 3.22917 23.4062 3.4375C22.8229 3.64583 22.3542 3.92708 22 4.28125C21.625 4.63542 21.3542 5.05208 21.1875 5.53125C21.0208 6.01042 20.9375 6.53125 20.9375 7.09375V43.6562C20.9375 44.3021 20.9896 44.8958 21.0938 45.4375C21.1979 45.9583 21.4167 46.4167 21.75 46.8125C22.0625 47.1875 22.5208 47.4792 23.125 47.6875C23.7083 47.8958 24.4792 48 25.4375 48H39.875C40.7292 48 41.4375 47.9062 42 47.7188C42.5625 47.5312 43.0104 47.2604 43.3438 46.9062C43.6771 46.5521 43.9167 46.1042 44.0625 45.5625C44.1875 45.0208 44.25 44.3854 44.25 43.6562V28.2188Z" fill="#D94521"/>
<path d="M17.4706 29.8983C17.4706 29.8983 -0.636074 36.3888 2.7781 39.5229C6.19228 42.657 19.6756 31.6765 19.6756 31.6765C19.6756 31.6765 10.8334 42.9282 15.1767 44.8442C19.52 46.7602 20.7247 32.6412 20.7247 32.6412C20.7247 32.6412 16.5326 49.4542 22.0584 47.8983C27.5842 46.3424 22.7697 31.6765 22.7697 31.6765C22.7697 31.6765 29.2824 45.4577 33.1189 43.7595C36.9554 42.0613 24.9969 30.1562 24.9969 30.1562C24.9969 30.1562 36.8621 40.6076 40.1117 36.4333C43.3614 32.2589 24.9969 27.8711 24.9969 27.8711C24.9969 27.8711 41.3165 32.3167 42.4812 27.8711C43.646 23.4256 25.7438 26.9509 25.7438 26.9509C25.7438 26.9509 43.7793 21.3362 40.7697 17.5797C37.7601 13.8232 24.4368 25.6884 24.4368 25.6884C24.4368 25.6884 39.5516 14.5034 36.8087 11.4982C34.0658 8.49303 23.3698 24.8749 23.3698 24.8749C23.3698 24.8749 33.7991 7.73729 29.2202 6.7815C24.6413 5.82571 21.316 25.1638 21.316 25.1638C21.316 25.1638 24.05 3.90968 18.2664 6.16802C12.4827 8.42635 19.929 25.6884 19.929 25.6884C19.929 25.6884 11.0468 8.55972 7.3659 10.8892C3.68499 13.2186 18.9465 27.3599 18.9465 27.3599C18.9465 27.3599 5.64547 14.9124 2.09349 17.5086C-1.4585 20.1048 18.0974 27.7867 18.0974 27.7867C18.0974 27.7867 0.759825 23.5101 0.0218656 28.2312C-0.716094 32.9524 17.4706 29.8983 17.4706 29.8983Z" fill="#4D89F9"/>
<path d="M20.7957 27.0177C20.7957 27.0177 18.7152 21.9498 21.2402 21.3363C23.7653 20.7228 21.8848 27.4311 21.8359 27.1644C21.787 26.8977 23.0229 22.1321 26.157 22.9634C29.2911 23.7947 22.4805 27.5778 22.4805 27.5778C22.4805 27.5778 25.5435 25.3862 27.8152 26.951C30.0869 28.5159 22.7473 28.3158 22.7473 28.3158C22.7473 28.3158 26.9883 27.9913 27.2862 30.6097C27.584 33.2281 22.5783 28.6892 22.5783 28.6892C22.5783 28.6892 26.2904 32.997 23.912 34.1395C21.5336 35.282 21.7426 28.9649 21.7426 28.9649C21.7426 28.9649 22.1027 33.6682 19.6799 33.3437C17.257 33.0192 21.0935 28.9649 21.0935 28.9649C21.0935 28.9649 17.1726 32.2457 16.7725 30.0007C16.3724 27.7557 20.3289 28.4136 20.3289 28.4136C20.3289 28.4136 14.6075 27.0444 16.1768 24.7371C17.746 22.4299 20.7957 27.0177 20.7957 27.0177Z" fill="#D94521"/>
</svg>
