<svg width="81" height="72" viewBox="0 0 81 72" fill="none" xmlns="http://www.w3.org/2000/svg">
<path d="M80.6597 36.0879C80.6597 30.9316 75.1351 26.1436 65.9274 22.8288L64.27 22.2763V21.5397C66.2957 11.4112 64.8224 3.86086 60.2186 1.09854C55.6147 -1.66378 48.801 0.914388 41.4348 7.3598L40.3299 8.46473L39.9616 8.09642H39.5932C32.0429 1.09854 24.6767 -1.29547 20.0729 1.2827C15.469 3.86086 14.1799 11.0429 16.0215 20.4348C16.2152 21.0323 16.3388 21.6503 16.3898 22.2763L14.3641 23.0129C5.34048 26.1436 0 30.9316 0 36.0879C0 41.2443 5.89295 46.4006 15.1007 49.7154L16.3898 50.0837C16.1623 50.7356 16.038 51.4191 16.0215 52.1094C14.1799 61.3171 15.8373 68.315 20.0729 70.8932C24.3084 73.4713 32.0429 71.0773 39.4091 64.6319L40.514 63.7111L41.9873 65.1844C47.1436 69.6041 52.2999 71.9981 56.3513 71.9981C57.7804 72.0307 59.1881 71.6468 60.4027 70.8932C65.0066 68.315 66.664 60.7646 64.6383 51.1886V50.8203C64.5587 50.5173 64.4972 50.2098 64.4541 49.8995H65.0066C74.7668 46.4006 80.6597 41.4284 80.6597 36.0879ZM75.3193 36.0879C75.3193 38.2978 71.2678 42.165 63.3492 44.7432H62.9809C62.0155 41.7809 60.8464 38.8889 59.482 36.0879C60.771 33.1415 61.876 30.195 62.7967 27.4327L64.27 27.801C71.6362 30.3791 75.3193 33.8781 75.3193 36.0879ZM45.4862 61.133L44.013 60.028C46.1216 57.6916 48.0894 55.2319 49.9059 52.6618L59.2978 51.1886C59.482 51.5569 59.482 51.9252 59.6661 52.1094C60.3223 55.445 60.4466 58.8634 60.0344 62.2379C59.7757 63.8517 59.0002 65.338 57.8246 66.4734C55.983 67.5784 51.0108 66.1051 45.4862 61.133ZM43.0922 53.0302L40.514 56.3449L37.5675 53.0302H43.0922ZM17.863 27.2485C18.7886 30.2847 19.9587 33.2408 21.3619 36.0879C19.9576 38.998 18.7876 42.0154 17.863 45.1115L16.7581 44.7432C13.5333 43.7254 10.5329 42.1002 7.91865 39.9552C7.24173 39.5274 6.66236 38.9621 6.21818 38.2958C5.77401 37.6295 5.47497 36.8773 5.34048 36.0879C5.34048 33.8781 9.02358 30.3791 16.0215 27.9851L17.863 27.2485ZM37.5675 19.1457L40.3299 16.0151L43.0922 19.1457H37.5675ZM57.8246 5.70241C59.8503 6.80734 60.9552 12.332 59.2978 20.4348C59.3063 20.5345 59.2943 20.635 59.2626 20.73C59.231 20.825 59.1803 20.9125 59.1136 20.9872L49.9059 19.514C48.0894 16.9439 46.1216 14.4842 44.013 12.1478L45.1179 11.227C51.0108 6.07072 55.7989 4.59748 57.8246 5.70241ZM27.0707 25.2228L25.5975 27.6168L24.3084 30.0108C23.756 28.7217 23.3876 27.4327 22.8352 25.9594L27.0707 25.2228ZM22.8352 46.2164C23.3876 44.9273 23.756 43.6383 24.3084 42.165L25.5975 44.559L27.0707 46.953L22.8352 46.2164ZM53.589 36.0879C52.6519 38.107 51.6068 40.0741 50.4584 41.9809C49.3534 44.0066 48.0644 45.8481 46.9594 47.6897H33.7003C32.4112 45.664 31.1221 43.8224 30.2014 41.9809C29.0438 40.0793 27.9985 38.1116 27.0707 36.0879C27.9643 34.0475 29.0108 32.0776 30.2014 30.195C31.2594 28.287 32.4277 26.4424 33.7003 24.6703C38.1123 24.3022 42.5474 24.3022 46.9594 24.6703C48.2485 26.5119 49.3534 28.3534 50.4584 30.195C51.6489 32.0776 52.6954 34.0475 53.589 36.0879ZM55.0622 27.6168L53.589 25.2228L57.8246 26.1436C57.4145 27.4621 56.9225 28.7537 56.3513 30.0108L55.0622 27.6168ZM53.589 46.953L55.0622 44.559L56.3513 41.9809L58.0087 46.2164L53.589 46.953ZM36.4626 11.9637H36.6468L30.7538 19.3299L21.5461 20.8031C21.3619 20.2506 21.3619 19.8823 21.1778 19.3299C19.7045 11.7795 20.8095 6.62318 22.651 5.70241C23.1399 5.38128 23.7295 5.25027 24.3084 5.3341C26.8866 5.3341 31.3063 7.17565 36.2785 11.5954L36.4626 11.9637ZM21.1778 53.0302C21.2114 52.4616 21.3357 51.902 21.5461 51.3728L30.938 52.6618C32.7085 55.2662 34.6787 57.729 36.8309 60.028L36.4626 60.3963L36.0943 60.7647C33.5836 63.0903 30.6437 64.9043 27.439 66.1051C26.736 66.4734 25.9658 66.6958 25.1747 66.7591C24.3836 66.8224 23.5878 66.7252 22.8352 66.4734C20.8095 65.3685 19.7045 60.3963 21.1778 53.0302Z" fill="white"/>
<path d="M40.3299 27.9852C38.72 27.9486 37.1357 28.3926 35.7792 29.2604C34.4227 30.1282 33.3555 31.3805 32.7139 32.8575C32.0723 34.3345 31.8853 35.9692 32.1769 37.5529C32.4684 39.1366 33.2252 40.5976 34.3508 41.7493C35.4763 42.901 36.9194 43.6912 38.496 44.019C40.0726 44.3469 41.7112 44.1976 43.2025 43.5901C44.6939 42.9826 45.9704 41.9445 46.8692 40.6083C47.7679 39.2721 48.2482 37.6984 48.2486 36.0881C48.2491 33.9706 47.4208 31.937 45.9408 30.4226C44.4608 28.9083 42.4469 28.0334 40.3299 27.9852Z" fill="white"/>
</svg>
